<!DOCTYPE svg PUBLIC "-//W3C//DTD SVG 1.1//EN" "http://www.w3.org/Graphics/SVG/1.1/DTD/svg11.dtd">
<!-- Uploaded to: SVG Repo, www.svgrepo.com, Transformed by: SVG Repo Mixer Tools -->
<svg fill="#ffffff" width="800px" height="800px" viewBox="0 0 24 24" xmlns="http://www.w3.org/2000/svg" id="settings" class="icon glyph">
<g id="SVGRepo_bgCarrier" stroke-width="0"/>
<g id="SVGRepo_tracerCarrier" stroke-linecap="round" stroke-linejoin="round"/>
<g id="SVGRepo_iconCarrier">
<path d="M20.89,9.78h-.65a1.16,1.16,0,0,1-1-.74V9a1.13,1.13,0,0,1,.22-1.26l.46-.46a1.13,1.13,0,0,0,0-1.58L18.29,4.14a1.13,1.13,0,0,0-1.58,0l-.46.46A1.13,1.13,0,0,1,15,4.82h0a1.16,1.16,0,0,1-.74-1V3.11A1.11,1.11,0,0,0,13.11,2H10.89A1.11,1.11,0,0,0,9.78,3.11v.65a1.16,1.16,0,0,1-.74,1H9A1.13,1.13,0,0,1,7.75,4.6l-.46-.46a1.13,1.13,0,0,0-1.58,0L4.14,5.71a1.13,1.13,0,0,0,0,1.58l.46.46A1.13,1.13,0,0,1,4.82,9V9a1.16,1.16,0,0,1-1,.74H3.11A1.11,1.11,0,0,0,2,10.89v2.22a1.11,1.11,0,0,0,1.11,1.11h.65a1.16,1.16,0,0,1,1,.74v0a1.13,1.13,0,0,1-.22,1.26l-.46.46a1.13,1.13,0,0,0,0,1.58l1.57,1.57a1.13,1.13,0,0,0,1.58,0l.46-.46A1.13,1.13,0,0,1,9,19.18H9a1.16,1.16,0,0,1,.74,1v.65A1.11,1.11,0,0,0,10.89,22h2.22a1.11,1.11,0,0,0,1.11-1.11v-.65a1.16,1.16,0,0,1,.74-1h0a1.13,1.13,0,0,1,1.26.22l.46.46a1.13,1.13,0,0,0,1.58,0l1.57-1.57a1.13,1.13,0,0,0,0-1.58l-.46-.46A1.13,1.13,0,0,1,19.18,15v0a1.16,1.16,0,0,1,1-.74h.65A1.11,1.11,0,0,0,22,13.11V10.89A1.11,1.11,0,0,0,20.89,9.78ZM12,16a4,4,0,1,1,4-4A4,4,0,0,1,12,16Z"/>
</g>
</svg>