<?xml version="1.0" encoding="utf-8"?>
<!-- Generator: Adobe Illustrator 19.2.1, SVG Export Plug-In . SVG Version: 6.00 Build 0)  -->
<svg version="1.1" id="layer" xmlns="http://www.w3.org/2000/svg" xmlns:xlink="http://www.w3.org/1999/xlink" x="0px" y="0px"
	 viewBox="0 0 652 652" style="enable-background:new 0 0 652 652;" xml:space="preserve">
<path d="M30.7,265.4h17.5l8.8-15.2l-8.8-15.1H30.7l-8.8,15.1L30.7,265.4z M25.4,369.4v-91.8h27.9v91.7H25.4V369.4z M161,369.4h-27.9
	v-51.5c0-6.1-1.1-10.4-3.4-13.2c-2.2-2.7-5.5-4.2-9-4.1c-2.1,0-4.1,0.4-6,1.3c-2.1,0.9-4,2.1-5.8,3.4c-1.9,1.5-3.6,3.2-5,5.1
	c-1.4,2-2.5,4.1-3.4,6.3v52.6H72.6v-91.7h25.1v15.4c3.5-5.5,8.5-9.9,14.4-12.7c6.7-3.1,14-4.6,21.4-4.4c5-0.2,10,0.9,14.4,3.3
	c3.5,2,6.4,4.9,8.4,8.4c2,3.5,3.3,7.3,4,11.2c0.6,3.9,0.9,7.9,1,11.8v58.8H161z M237.8,301.6c-6.3,0.1-12.5,1.3-18.3,3.4
	c-4.9,1.7-9.1,5-11.8,9.3v55.1h-27.9v-91.8h25.6V296c2.9-5.7,7-10.7,12.2-14.5c4.6-3.4,10.1-5.3,15.8-5.4h2.8c0.6,0,1.1,0,1.7,0.1
	V301.6z M277.2,371.1c-9.3,0-16.5-3-21.4-8.8c-4.8-5.8-7.3-14.5-7.3-25.9v-58.8h27.9V330c-0.3,4.5,0.9,9,3.3,12.8
	c2.2,2.9,5.7,4.6,9.3,4.4c3.8,0,7.5-1,10.8-3c4-2.5,7.2-6,9.3-10.3v-56.5h27.9v60.2c-0.2,2,0.3,4.1,1.3,5.8c1.2,1.3,2.9,2,4.7,2
	v23.6c-2.3,0.5-4.5,0.9-6.8,1.1c-1.8,0.1-3.5,0.3-5.1,0.3c-9.9,0-15.6-3.9-17.1-11.6l-0.6-5.5c-3.8,5.8-9.3,10.5-15.6,13.4
	C291.4,369.8,284.3,371.2,277.2,371.1z M416.9,371.1c-6.4,0.2-12.7-1.3-18.2-4.4c-5.1-2.8-9.2-7.1-11.8-12.2v52.1h-27.9v-129h24.3
	v14.8c3.2-5,7.5-9.2,12.7-12.2c5.5-3,11.8-4.5,18.1-4.4c5.9-0.1,11.8,1.2,17.2,3.7c5.1,2.4,9.7,5.9,13.5,10.1
	c3.9,4.4,6.9,9.6,9,15.1c2.2,6,3.3,12.3,3.3,18.6c0.1,6.5-1,12.9-3,19c-1.8,5.5-4.7,10.7-8.4,15.2c-3.5,4.2-7.7,7.6-12.5,10.1
	C428.1,369.8,422.6,371.1,416.9,371.1L416.9,371.1z M407.6,347.4c2.9,0,5.7-0.7,8.3-2c2.5-1.3,4.7-3.1,6.5-5.3
	c1.9-2.3,3.3-5,4.3-7.8c1-3,1.5-6.2,1.4-9.3c0-3.2-0.5-6.3-1.7-9.3c-1.1-2.7-2.6-5.3-4.7-7.4c-1.9-2.1-4.3-3.8-7-4.8
	c-2.8-1.2-5.8-1.7-8.8-1.7c-4,0-7.8,1.2-11.1,3.4c-3.5,2.2-6.3,5.4-8.1,9.1V331c1.8,4.6,4.7,8.6,8.5,11.6
	C398.6,345.7,403,347.4,407.6,347.4L407.6,347.4z M529,364.4c-4.3,1.8-8.7,3.3-13.2,4.7c-4.9,1.4-9.9,2.1-14.9,2.1
	c-3.3,0-6.6-0.4-9.8-1.3c-6.1-1.5-11.2-5.8-13.7-11.6c-1.4-3.6-2.1-7.5-2-11.4v-48.1h-11.6v-21.2h11.6v-29.2h27.9v29.2h18.6v21.2
	h-18.6V337c-0.2,2.4,0.6,4.8,2.3,6.5c1.6,1.4,3.7,2.1,5.8,2c2.2,0,4.3-0.3,6.4-1c2-0.6,4-1.4,5.8-2.3L529,364.4z M539.5,341.3
	c-2.6,0-4.7,2.1-4.7,4.7c0,2.6,2.1,4.7,4.7,4.7c2.6,0,4.7-2.1,4.7-4.7C544.2,343.4,542.1,341.3,539.5,341.3z M539.5,347.4
	c-0.8,0-1.4-0.6-1.4-1.4l0,0c0-0.8,0.7-1.4,1.4-1.4c0.8,0.1,1.4,0.7,1.4,1.4C541,346.8,540.3,347.4,539.5,347.4L539.5,347.4z
	 M534.9,305.5l-1.7-3.7l2.3-3.4l4.1,0.3l1.7,3.7l-2.3,3.4L534.9,305.5z M564.6,319.7l-7.1,2.3l-1.6,7.4l5.5,5l7.1-2.3l1.6-7.4
	L564.6,319.7z M565.9,329.7l-3.7,1.1l-2.7-2.6l0.8-3.8l3.7-1.1l2.8,2.6L565.9,329.7z M577.3,352.5l-6.5,2.1l-1.4,6.7l5.1,4.7
	l6.5-2.1l1.4-6.7L577.3,352.5z M578.3,361.3l-3.1,1l-2.3-2.1l0.7-3.1l3.1-1l2.3,2.1L578.3,361.3z M605.4,308l-13.8,4.5l-3,14.3
	l10.8,9.7l13.8-4.7l3-14.2L605.4,308z M610.6,329.5l-10.4,3.4l-8.1-7.3l2.3-10.7l10.4-3.4l8.1,7.2L610.6,329.5z M584.7,294.2
	l-8.7-1.9l-5.8,6.6l2.7,8.4l8.7,1.9l5.8-6.5L584.7,294.2z M580.4,305.7l-5.1-1.1l-1.6-5l3.4-3.9l5.1,1.1l1.6,5L580.4,305.7z
	 M561.5,277.5l-5.8,0.7l-2.3,5.4l3.5,4.8l5.8-0.7l2.3-5.4L561.5,277.5z M560.5,284.8l-2.3,0.3l-1.4-1.9l0.9-2.1l2.3-0.3l1.4,1.9
	L560.5,284.8z M551.8,250.9l-5.7,1.6l-1.6,5.7l4.1,4.1l5.7-1.6l1.6-5.7L551.8,250.9z M551.9,258.3l-2.3,0.6l-1.5-1.6l0.6-2.3
	l2.3-0.6l1.6,1.6L551.9,258.3z M613.3,245.1h-16.9l-8.5,14.7l8.5,14.6h16.9l8.5-14.6L613.3,245.1z M611.4,271.4h-13.4l-6.7-11.5
	l6.7-11.5h13.4l6.7,11.6L611.4,271.4z"/>
</svg>
